<svg width="310" height="310" viewBox="0 0 310 310" fill="none" xmlns="http://www.w3.org/2000/svg">
<circle cx="155" cy="155" r="155" fill="#0B2545"/>
<path d="M67.4668 78C66.0169 78 64.6264 78.576 63.6012 79.6011C62.576 80.6263 62 82.0168 62 83.4667C62 84.9165 62.576 86.307 63.6012 87.3322C64.6264 88.3574 66.0169 88.9333 67.4668 88.9333H79.6032L83.9876 106.503L100.366 193.806C100.601 195.059 101.266 196.19 102.246 197.005C103.226 197.819 104.46 198.265 105.735 198.267H116.668C110.869 198.267 105.307 200.57 101.206 204.671C97.1049 208.772 94.801 214.334 94.801 220.133C94.801 225.933 97.1049 231.495 101.206 235.595C105.307 239.696 110.869 242 116.668 242C122.468 242 128.03 239.696 132.131 235.595C136.232 231.495 138.536 225.933 138.536 220.133C138.536 214.334 136.232 208.772 132.131 204.671C128.03 200.57 122.468 198.267 116.668 198.267H193.204C187.404 198.267 181.842 200.57 177.742 204.671C173.641 208.772 171.337 214.334 171.337 220.133C171.337 225.933 173.641 231.495 177.742 235.595C181.842 239.696 187.404 242 193.204 242C199.004 242 204.566 239.696 208.667 235.595C212.768 231.495 215.071 225.933 215.071 220.133C215.071 214.334 212.768 208.772 208.667 204.671C204.566 200.57 199.004 198.267 193.204 198.267H204.138C205.412 198.265 206.646 197.819 207.627 197.005C208.607 196.19 209.272 195.059 209.506 193.806L225.907 106.339C226.054 105.55 226.026 104.738 225.825 103.961C225.624 103.184 225.253 102.461 224.741 101.843C224.229 101.226 223.586 100.728 222.86 100.387C222.134 100.045 221.341 99.8674 220.538 99.8667H93.5983L89.1702 82.1437C88.8751 80.9606 88.1928 79.91 87.232 79.1592C86.2711 78.4084 85.0868 78.0003 83.8673 78H67.4668ZM127.602 220.133C127.602 223.033 126.45 225.814 124.4 227.864C122.349 229.915 119.568 231.067 116.668 231.067C113.769 231.067 110.988 229.915 108.937 227.864C106.887 225.814 105.735 223.033 105.735 220.133C105.735 217.234 106.887 214.453 108.937 212.402C110.988 210.352 113.769 209.2 116.668 209.2C119.568 209.2 122.349 210.352 124.4 212.402C126.45 214.453 127.602 217.234 127.602 220.133ZM204.138 220.133C204.138 223.033 202.986 225.814 200.935 227.864C198.885 229.915 196.104 231.067 193.204 231.067C190.304 231.067 187.523 229.915 185.473 227.864C183.422 225.814 182.27 223.033 182.27 220.133C182.27 217.234 183.422 214.453 185.473 212.402C187.523 210.352 190.304 209.2 193.204 209.2C196.104 209.2 198.885 210.352 200.935 212.402C202.986 214.453 204.138 217.234 204.138 220.133ZM160.403 127.2V143.6H176.804C178.253 143.6 179.644 144.176 180.669 145.201C181.694 146.226 182.27 147.617 182.27 149.067C182.27 150.517 181.694 151.907 180.669 152.932C179.644 153.957 178.253 154.533 176.804 154.533H160.403V170.933C160.403 172.383 159.827 173.774 158.802 174.799C157.777 175.824 156.386 176.4 154.936 176.4C153.486 176.4 152.096 175.824 151.071 174.799C150.045 173.774 149.469 172.383 149.469 170.933V154.533H133.069C131.619 154.533 130.228 153.957 129.203 152.932C128.178 151.907 127.602 150.517 127.602 149.067C127.602 147.617 128.178 146.226 129.203 145.201C130.228 144.176 131.619 143.6 133.069 143.6H149.469V127.2C149.469 125.75 150.045 124.36 151.071 123.334C152.096 122.309 153.486 121.733 154.936 121.733C156.386 121.733 157.777 122.309 158.802 123.334C159.827 124.36 160.403 125.75 160.403 127.2Z" fill="#F7F7F7"/>
</svg>
